<?xml version="1.0" encoding="utf-8"?>
<!-- Generator: Adobe Illustrator 25.2.0, SVG Export Plug-In . SVG Version: 6.00 Build 0)  -->
<svg version="1.1" id="Layer_1" xmlns="http://www.w3.org/2000/svg" xmlns:xlink="http://www.w3.org/1999/xlink" x="0px" y="0px"
	 viewBox="0 0 200 200" style="enable-background:new 0 0 200 200;" xml:space="preserve">
<style type="text/css">
	.st0{fill:#F05235;}
	.st1{fill:#FFFFFF;}
</style>
<rect x="0" y="0" class="st0" width="200" height="200"/>
<path class="st1" d="M99.9,34c-0.1,0-0.1,0-0.2,0l-40,6c-0.5,0.1-1,0.4-1.3,0.8l-30,40c-0.6,0.7-0.5,1.8,0.1,2.5l70,82
	c0.7,0.8,2,0.9,2.8,0.2c0.1-0.1,0.2-0.1,0.2-0.2l70-83.1c0.6-0.7,0.6-1.8,0.1-2.5l-30-38.9c-0.3-0.4-0.8-0.7-1.3-0.8l-40-6
	C100.2,34,100,34,99.9,34z M100,38.4l39.7,41.5H60.3L100,38.4z M97.2,38.4L59.1,78.3l1.8-34.1l0.2-0.3L97.2,38.4z M102.8,38.4
	l36.1,5.4l0.2,0.3l1.8,34.2L102.8,38.4z M141.3,46.9l25.4,33H143L141.3,46.9z M58.7,47L57,79.9H34L58.7,47z M32.6,81.9h24.8
	l36.1,71.3L32.6,81.9z M59.6,81.9h80.8l-39.3,77.6l-1.1,1.4l-1.1-1.2L59.6,81.9z M142.6,81.9h23.9l-59.8,71L142.6,81.9z"/>
</svg>
