<?xml version="1.0" encoding="utf-8"?>
<!-- Generator: Adobe Illustrator 25.2.0, SVG Export Plug-In . SVG Version: 6.00 Build 0)  -->
<svg version="1.1" id="Layer_1" xmlns="http://www.w3.org/2000/svg" xmlns:xlink="http://www.w3.org/1999/xlink" x="0px" y="0px"
	 viewBox="0 0 64 64" style="enable-background:new 0 0 64 64;" xml:space="preserve">
<style type="text/css">
	.st0{fill:#519E42;}
</style>
<path class="st0" d="M32,6c-0.7,0-1.5,0.2-2.1,0.5L10.1,18C8.8,18.7,8,20.1,8,21.6v20.8c0,1.5,0.8,2.9,2.1,3.6l5.2,3
	c2.5,1.2,3.4,1.2,4.6,1.2c3.7,0,5.9-2.3,5.9-6.2V22.6c0-0.3-0.3-0.6-0.6-0.6h-2.5c-0.3,0-0.6,0.3-0.6,0.6V44c0,1.8-1.8,3.5-4.8,2
	l-5.4-3.1c-0.2-0.1-0.3-0.3-0.3-0.5V21.6c0-0.2,0.1-0.4,0.3-0.6L31.7,9.6c0.2-0.1,0.4-0.1,0.6,0l19.8,11.4c0.2,0.1,0.3,0.3,0.3,0.5
	v20.8c0,0.2-0.1,0.4-0.3,0.5L32.3,54.4c-0.2,0.1-0.4,0.1-0.6,0l-5.1-3c-0.1-0.1-0.3-0.1-0.5,0c-1.4,0.8-1.7,0.9-3,1.4
	c-0.3,0.1-0.8,0.3,0.2,0.9l6.6,3.9c0.6,0.4,1.4,0.6,2.1,0.6c0.7,0,1.5-0.2,2.1-0.6L53.9,46c1.3-0.7,2.1-2.1,2.1-3.6V21.6
	c0-1.5-0.8-2.9-2.1-3.6L34.1,6.5C33.4,6.2,32.7,6,32,6z M37.3,22c-5.7,0-9,2.4-9,6.4c0,4.3,3.4,5.5,8.8,6.1c6.5,0.6,7,1.6,7,2.9
	c0,2.2-1.8,3.1-6,3.1c-5.3,0-6.4-1.3-6.8-3.9c0-0.3-0.3-0.5-0.6-0.5h-2.6c-0.3,0-0.6,0.3-0.6,0.6c0,3.3,1.8,7.3,10.5,7.3
	c6.3,0,9.9-2.5,9.9-6.8c0-4.3-2.9-5.4-9-6.2c-6.2-0.8-6.8-1.2-6.8-2.7c0-1.2,0.5-2.8,5.1-2.8c4.1,0,5.6,0.9,6.2,3.6
	c0.1,0.3,0.3,0.5,0.6,0.5h2.6c0.2,0,0.3-0.1,0.4-0.2c0.1-0.1,0.2-0.3,0.1-0.4C46.8,24.2,43.7,22,37.3,22z"/>
</svg>
